<?xml version="1.0" encoding="UTF-8"?>
<svg version="1.1" xmlns="http://www.w3.org/2000/svg" width="64" height="64">
<path d="M0 0 C0.87430664 -0.00630432 1.74861328 -0.01260864 2.64941406 -0.019104 C4.06818848 -0.01303131 4.06818848 -0.01303131 5.515625 -0.00683594 C6.48467773 -0.00874939 7.45373047 -0.01066284 8.45214844 -0.01263428 C10.50325785 -0.01399673 12.55437586 -0.01029612 14.60546875 -0.00195312 C17.75280039 0.00874547 20.8995612 -0.00184647 24.046875 -0.01464844 C26.0364596 -0.01332685 28.02604384 -0.01076448 30.015625 -0.00683594 C30.96147461 -0.0108844 31.90732422 -0.01493286 32.88183594 -0.019104 C33.75614258 -0.01279968 34.63044922 -0.00649536 35.53125 0 C36.68802246 0.00238678 36.68802246 0.00238678 37.86816406 0.00482178 C39.765625 0.25878906 39.765625 0.25878906 41.765625 2.25878906 C42.01959229 4.15625 42.01959229 4.15625 42.02441406 6.49316406 C42.03071838 7.3674707 42.03702271 8.24177734 42.04351807 9.14257812 C42.0394696 10.08842773 42.03542114 11.03427734 42.03125 12.00878906 C42.03412018 13.46236816 42.03412018 13.46236816 42.03704834 14.9453125 C42.03841079 16.99642191 42.03471018 19.04753992 42.02636719 21.09863281 C42.01566859 24.24596445 42.02626054 27.39272526 42.0390625 30.54003906 C42.03774092 32.52962366 42.03517855 34.5192079 42.03125 36.50878906 C42.03529846 37.45463867 42.03934692 38.40048828 42.04351807 39.375 C42.03721375 40.24930664 42.03090942 41.12361328 42.02441406 42.02441406 C42.02282288 42.7955957 42.02123169 43.56677734 42.01959229 44.36132812 C41.765625 46.25878906 41.765625 46.25878906 39.765625 48.25878906 C37.86816406 48.51275635 37.86816406 48.51275635 35.53125 48.51757812 C34.65694336 48.52388245 33.78263672 48.53018677 32.88183594 48.53668213 C31.46306152 48.53060944 31.46306152 48.53060944 30.015625 48.52441406 C29.04657227 48.52632751 28.07751953 48.52824097 27.07910156 48.5302124 C25.02799215 48.53157485 22.97687414 48.52787424 20.92578125 48.51953125 C17.77844961 48.50883266 14.6316888 48.5194246 11.484375 48.53222656 C9.4947904 48.53090498 7.50520616 48.52834261 5.515625 48.52441406 C4.09685059 48.53048676 4.09685059 48.53048676 2.64941406 48.53668213 C1.77510742 48.53037781 0.90080078 48.52407349 0 48.51757812 C-0.77118164 48.51598694 -1.54236328 48.51439575 -2.33691406 48.51275635 C-4.234375 48.25878906 -4.234375 48.25878906 -6.234375 46.25878906 C-6.48834229 44.36132812 -6.48834229 44.36132812 -6.49316406 42.02441406 C-6.49946838 41.15010742 -6.50577271 40.27580078 -6.51226807 39.375 C-6.5082196 38.42915039 -6.50417114 37.48330078 -6.5 36.50878906 C-6.50191345 35.53973633 -6.5038269 34.57068359 -6.50579834 33.57226562 C-6.50716079 31.52115622 -6.50346018 29.47003821 -6.49511719 27.41894531 C-6.48441859 24.27161367 -6.49501054 21.12485286 -6.5078125 17.97753906 C-6.50649092 15.98795446 -6.50392855 13.99837022 -6.5 12.00878906 C-6.50404846 11.06293945 -6.50809692 10.11708984 -6.51226807 9.14257812 C-6.50596375 8.26827148 -6.49965942 7.39396484 -6.49316406 6.49316406 C-6.49157288 5.72198242 -6.48998169 4.95080078 -6.48834229 4.15625 C-5.94732352 0.11414679 -3.48046094 0.00718127 0 0 Z M-2.97169495 3.46856689 C-4.71468884 5.57465581 -4.71468884 5.57465581 -4.234375 10.25878906 C10.285625 10.25878906 24.805625 10.25878906 39.765625 10.25878906 C39.270625 6.79378906 39.270625 6.79378906 38.765625 3.25878906 C35.51453982 1.63324647 31.93666594 2.0743788 28.36328125 2.05566406 C27.52977646 2.04996399 26.69627167 2.04426392 25.83750916 2.03839111 C24.07308218 2.02893862 22.30863754 2.02240614 20.54418945 2.01855469 C17.84229865 2.00884002 15.1411656 1.97781602 12.43945312 1.94628906 C10.72656703 1.93975993 9.01367548 1.93450911 7.30078125 1.93066406 C6.08661278 1.91214386 6.08661278 1.91214386 4.84791565 1.89324951 C0.7054138 1.82244762 0.7054138 1.82244762 -2.97169495 3.46856689 Z M-4.234375 12.25878906 C-4.29625 17.31191406 -4.358125 22.36503906 -4.421875 27.57128906 C-4.44918701 29.16239502 -4.47649902 30.75350098 -4.50463867 32.39282227 C-4.51213135 33.64409912 -4.51962402 34.89537598 -4.52734375 36.18457031 C-4.5430542 37.46759033 -4.55876465 38.75061035 -4.57495117 40.07250977 C-4.52206761 43.18489568 -4.52206761 43.18489568 -2.94941711 44.93367004 C0.01659039 47.22534144 3.66615583 46.68433587 7.265625 46.65722656 C8.51375977 46.66153183 8.51375977 46.66153183 9.78710938 46.66592407 C11.54557984 46.66796468 13.30407301 46.66243499 15.0625 46.64990234 C17.75572413 46.63384808 20.4474476 46.64975052 23.140625 46.66894531 C24.84896165 46.66696288 26.55729736 46.6631192 28.265625 46.65722656 C29.07193359 46.66329926 29.87824219 46.66937195 30.70898438 46.67562866 C34.87230401 46.72799491 34.87230401 46.72799491 38.48066711 44.93367004 C40.57644358 42.20192593 40.0998966 39.5576366 40.05859375 36.18457031 C40.05110107 34.93329346 40.0436084 33.6820166 40.03588867 32.39282227 C39.99492065 30.00616333 39.99492065 30.00616333 39.953125 27.57128906 C39.89125 22.51816406 39.829375 17.46503906 39.765625 12.25878906 C25.245625 12.25878906 10.725625 12.25878906 -4.234375 12.25878906 Z " fill="#654CFF" transform="translate(14.234375,7.7412109375)"/>
<path d="M0 0 C0.99 0.33 1.98 0.66 3 1 C1.36231563 10.00726401 -1.86979697 18.42639358 -5 27 C-5.99 26.67 -6.98 26.34 -8 26 C-6.36231563 16.99273599 -3.13020303 8.57360642 0 0 Z " fill="#7D40FF" transform="translate(35,23)"/>
<path d="M0 0 C3.09084737 0.34342749 4.32444569 1.25955655 6.8125 3.25 C9 6 9 6 9.125 8.5 C7.64298343 11.79337016 5.76215439 13.69820467 3 16 C2.01 16 1.02 16 0 16 C0.56371414 12.73045798 1.49962266 11.17424117 4 9 C2.84826645 6.53199953 1.95216435 4.95216435 0 3 C0 2.01 0 1.02 0 0 Z " fill="#8140FF" transform="translate(40,28)"/>
<path d="M0 0 C0.99 0.33 1.98 0.66 3 1 C3 1.66 3 2.32 3 3 C1.37373596 4.38232443 -0.2925002 5.71937515 -2 7 C-0.63016497 10.16115776 -0.0109362 10.9927092 3 13 C2.67 13.99 2.34 14.98 2 16 C-1.43595166 14.47291037 -4.11912454 12.40072955 -7 10 C-6.84819155 7.34335221 -6.47988575 5.54782138 -4.703125 3.51953125 C-3.125 2.125 -3.125 2.125 0 0 Z " fill="#7D3FFF" transform="translate(22,28)"/>
<path d="M0 0 C1.9375 0.3125 1.9375 0.3125 4 1 C4.33 1.99 4.66 2.98 5 4 C4.01 4.33 3.02 4.66 2 5 C1.34 4.34 0.68 3.68 0 3 C0 2.01 0 1.02 0 0 Z " fill="#6849FF" transform="translate(40,28)"/>
<path d="M0 0 C1.32 0 2.64 0 4 0 C4 1.32 4 2.64 4 4 C2.68 4 1.36 4 0 4 C0 2.68 0 1.36 0 0 Z " fill="#A6B9FF" transform="translate(26,12)"/>
<path d="M0 0 C1.32 0 2.64 0 4 0 C4 1.32 4 2.64 4 4 C2.68 4 1.36 4 0 4 C0 2.68 0 1.36 0 0 Z " fill="#A6B9FF" transform="translate(20,12)"/>
<path d="M0 0 C1.32 0 2.64 0 4 0 C4 1.32 4 2.64 4 4 C2.68 4 1.36 4 0 4 C0 2.68 0 1.36 0 0 Z " fill="#A6B9FF" transform="translate(14,12)"/>
</svg>
